<svg width="20" height="20" viewBox="0 0 20 20" fill="none" xmlns="http://www.w3.org/2000/svg">
<path d="M0 9.93554C0 10.3464 0.325114 10.5947 0.727671 10.5947C0.976073 10.5947 1.17297 10.4749 1.34429 10.3037L9.70046 2.6945C9.79434 2.60028 9.89735 2.56595 10.0084 2.56595C10.1114 2.56595 10.2057 2.60028 10.3079 2.6945L18.6557 10.3037C18.8354 10.4749 19.0323 10.5947 19.2723 10.5947C19.6745 10.5947 20 10.3464 20 9.93554C20 9.67881 19.9058 9.5163 19.7432 9.37059L16.7806 6.67473V1.61608C16.7806 1.23957 16.541 1 16.1644 1H15.0429C14.6747 1 14.4179 1.23957 14.4179 1.61608V4.5263L11.0272 1.42764C10.7277 1.14535 10.3595 1.00876 10 1.00876C9.64018 1.00876 9.28073 1.14571 8.97242 1.42801L0.256804 9.37059C0.102648 9.5163 0 9.67881 0 9.93554ZM2.44858 17.1167C2.44858 18.3065 3.16785 19 4.37479 19H7.84256V12.9141C7.84256 12.5204 8.10776 12.264 8.50155 12.264H11.524C11.9178 12.264 12.1746 12.5204 12.1746 12.9141V19H15.6336C16.8405 19 17.5514 18.3065 17.5514 17.1167V10.8514L10.2824 4.30354C10.1881 4.21808 10.0855 4.17535 9.98283 4.17535C9.88858 4.17535 9.79434 4.21808 9.69169 4.3123L2.44858 10.8942V17.1167Z" fill="white"/>
</svg>
