<svg width="40" height="40" viewBox="0 0 40 40" fill="none" xmlns="http://www.w3.org/2000/svg">
<path d="M6.37375 23.6137C6.37375 23.6137 7.11687 26.475 11.7706 25.7431L12.5612 23.8281L11.2219 22.3731L7.51875 21.1512L6.37375 23.6137Z" fill="#34484C"/>
<path d="M21.2 18.2481C21.2 19.2613 20.6787 19.5294 19.3637 20.0844L8.13 24.8281C7.88871 24.8283 7.64975 24.7809 7.42681 24.6886C7.20387 24.5963 7.00133 24.4609 6.83077 24.2902C6.6602 24.1195 6.52498 23.9169 6.43283 23.6939C6.34068 23.4709 6.29342 23.2319 6.29375 22.9906V7.205C6.29375 6.19125 6.89 5.855 8.13 5.37063L19.3644 0.625C19.8514 0.625166 20.3184 0.81866 20.6628 1.16297C21.0073 1.50728 21.2009 1.97424 21.2012 2.46125V18.2487" fill="#AD7029"/>
<path d="M7.31313 24.6369C7.31313 24.6369 11.5256 25.8431 11.7719 25.7419C12.0169 25.6356 11.6131 23.9144 11.6131 23.9144L10.0913 22.275L8.6725 22.2088L8.42313 22.5625L7.31313 24.6369Z" fill="#34484C"/>
<path d="M19.0987 1.7225L6.63499 6.95688L7.21937 10.3125L9.07374 10.4981L15.2669 9.50125L19.1162 7.48438L21.9487 3.60313C21.3312 2.49375 20.4206 1.80688 19.0987 1.7225Z" fill="#F4F5F5"/>
<path d="M9.93562 8.11875C9.93562 7.82375 9.99062 7.58813 10.0906 7.38938C8.81437 7.26938 7.60937 6.90125 6.73187 6.11C6.43937 6.37813 6.29562 6.71 6.29562 7.2075V22.9938C6.29595 23.4807 6.48952 23.9475 6.83381 24.2918C7.17811 24.6361 7.64497 24.8297 8.13187 24.83L9.94437 24.065C9.94062 24.01 9.935 23.96 9.935 23.905L9.93562 8.11875Z" fill="#34484C"/>
<path d="M25.1662 19.8062C25.1662 20.8219 24.6444 21.0875 23.3287 21.6437L11.7706 25.7419C11.2834 25.7419 10.8161 25.5484 10.4715 25.2039C10.127 24.8594 9.93329 24.3922 9.93312 23.905V8.11875C9.93312 7.10625 10.53 6.76875 11.7706 6.28125L23.3287 2.185C23.8155 2.185 24.2824 2.37816 24.627 2.72208C24.9715 3.06601 25.1654 3.53258 25.1662 4.01937V19.8062Z" fill="#F79420"/>
<path d="M20.3794 7.00187C20.3914 7.03221 20.3973 7.06465 20.3967 7.09729C20.3961 7.12992 20.3889 7.16211 20.3757 7.19196C20.3625 7.22181 20.3435 7.24873 20.3198 7.27115C20.296 7.29356 20.2681 7.31102 20.2375 7.3225L14.09 9.69375C14.0285 9.7175 13.9601 9.71598 13.8997 9.68952C13.8393 9.66307 13.7918 9.61382 13.7675 9.5525C13.7439 9.49106 13.7456 9.4228 13.772 9.36255C13.7984 9.30229 13.8476 9.25489 13.9087 9.23062L20.0587 6.85937C20.1202 6.83627 20.1883 6.83827 20.2483 6.86493C20.3082 6.89159 20.3553 6.94078 20.3794 7.00187ZM20.3794 8.13312C20.3913 8.16348 20.397 8.19589 20.3963 8.22847C20.3956 8.26106 20.3884 8.29319 20.3752 8.323C20.362 8.3528 20.3431 8.37971 20.3194 8.40215C20.2958 8.42459 20.268 8.44213 20.2375 8.45375L14.09 10.8237C14.0597 10.8357 14.0274 10.8415 13.9948 10.8409C13.9623 10.8403 13.9302 10.8333 13.9004 10.8203C13.8705 10.8073 13.8436 10.7885 13.821 10.7651C13.7984 10.7417 13.7806 10.714 13.7687 10.6837C13.7568 10.6535 13.751 10.6211 13.7516 10.5886C13.7522 10.5561 13.7592 10.524 13.7722 10.4941C13.7852 10.4643 13.804 10.4373 13.8274 10.4147C13.8508 10.3922 13.8785 10.3744 13.9087 10.3625L20.0587 7.99C20.1204 7.96697 20.1886 7.96914 20.2486 7.99605C20.3086 8.02295 20.3556 8.07243 20.3794 8.13375M18.2894 10.1062C18.3394 10.2337 18.3087 10.3669 18.2212 10.4L14.0225 12.0187C13.935 12.0525 13.825 11.975 13.7737 11.8475C13.7256 11.72 13.7581 11.5869 13.8444 11.5537L18.0431 9.93625C18.1281 9.90375 18.2412 9.9775 18.2894 10.1062Z" fill="#905A24"/>
<path d="M2.58875 32.6156C2.58875 32.6156 3.39 35.7038 8.41 34.915L9.26437 32.8475L7.82062 31.2781L3.82124 29.9594L2.58875 32.6156Z" fill="#34484C"/>
<path d="M18.5862 26.8362C18.5862 27.9294 18.0237 28.2169 16.6037 28.8175L4.48125 33.935C4.22086 33.9352 3.96299 33.884 3.72238 33.7844C3.48178 33.6848 3.26317 33.5388 3.07904 33.3547C2.89492 33.1706 2.7489 32.952 2.64932 32.7114C2.54975 32.4708 2.49858 32.2129 2.49875 31.9525V14.9219C2.49875 13.8237 3.14125 13.4606 4.48125 12.9387L16.6037 7.82062C16.864 7.82045 17.1217 7.87156 17.3622 7.97101C17.6027 8.07047 17.8212 8.21632 18.0053 8.40025C18.1894 8.58418 18.3355 8.80257 18.4351 9.04296C18.5348 9.28334 18.5862 9.54101 18.5862 9.80124V26.8362Z" fill="#1EA0CD"/>
<path d="M3.60188 33.7237C3.60188 33.7237 8.14688 35.0281 8.40876 34.9169C8.67501 34.8031 8.24001 32.9456 8.24001 32.9456L6.59626 31.1744L5.06751 31.1056L4.79876 31.4862L3.60001 33.7237" fill="#34484C"/>
<path d="M16.3212 8.9975L2.875 14.65L3.50437 18.2687L5.50438 18.4687L12.1869 17.3919L16.3406 15.2162L19.3975 11.0281C18.73 9.83062 17.7475 9.08812 16.3225 8.9975" fill="#F4F5F5"/>
<path d="M6.43438 15.9019C6.43438 15.5863 6.48813 15.3306 6.5975 15.1156C5.2225 14.9881 3.92375 14.5906 2.9725 13.735C2.66 14.025 2.50375 14.385 2.50375 14.9225V31.9525C2.50359 32.2128 2.55472 32.4706 2.65421 32.7111C2.7537 32.9516 2.89961 33.1702 3.08361 33.3543C3.2676 33.5384 3.48607 33.6844 3.72652 33.7841C3.96698 33.8837 4.22472 33.935 4.485 33.935L6.44125 33.11C6.43588 33.0524 6.43317 32.9947 6.43313 32.9369V15.9019H6.43438Z" fill="#34484C"/>
<path d="M22.8656 28.5106C22.8656 29.605 22.3044 29.8919 20.8831 30.4919L8.41063 34.9156C7.88505 34.9151 7.38115 34.7061 7.00956 34.3344C6.63798 33.9627 6.42909 33.4587 6.42876 32.9331V15.8987C6.42876 14.805 7.07376 14.4412 8.41063 13.9175L20.8831 9.49625C21.1435 9.49608 21.4014 9.54725 21.642 9.64682C21.8826 9.74639 22.1012 9.89242 22.2853 10.0765C22.4695 10.2607 22.6155 10.4793 22.7151 10.7199C22.8146 10.9605 22.8658 11.2184 22.8656 11.4787V28.5106Z" fill="#57C6E9"/>
<path d="M17.7012 14.6956C17.7267 14.762 17.7249 14.8358 17.696 14.9008C17.6672 14.9658 17.6138 15.0168 17.5475 15.0425L10.9162 17.6C10.8499 17.6257 10.7761 17.6242 10.7108 17.5959C10.6456 17.5676 10.5941 17.5147 10.5675 17.4487C10.542 17.3818 10.544 17.3076 10.573 17.2421C10.602 17.1767 10.6558 17.1254 10.7225 17.0994L17.3537 14.5431C17.4201 14.5174 17.4939 14.519 17.559 14.5476C17.6242 14.5761 17.6753 14.6294 17.7012 14.6956ZM17.7012 15.9194C17.7263 15.9856 17.7243 16.0591 17.6955 16.1238C17.6667 16.1885 17.6135 16.2393 17.5475 16.265L10.9162 18.8219C10.8834 18.8348 10.8483 18.8412 10.813 18.8406C10.7776 18.8399 10.7428 18.8324 10.7104 18.8182C10.678 18.8041 10.6487 18.7838 10.6242 18.7583C10.5997 18.7329 10.5804 18.7029 10.5675 18.67C10.5421 18.6034 10.5441 18.5295 10.5732 18.4645C10.6023 18.3994 10.656 18.3486 10.7225 18.3231L17.3537 15.7656C17.4202 15.7399 17.4942 15.7417 17.5593 15.7705C17.6245 15.7994 17.6755 15.8529 17.7012 15.9194ZM15.4462 18.0462C15.4987 18.185 15.4662 18.3262 15.3719 18.3612L10.8406 20.1081C10.7469 20.1456 10.6287 20.0631 10.5744 19.9256C10.5212 19.7856 10.5531 19.6444 10.6475 19.6087L15.1781 17.8619C15.2737 17.8275 15.3931 17.9094 15.4462 18.0462Z" fill="#198BA9"/>
<path d="M13.665 36.7544C13.665 36.7544 14.5337 40.0887 19.9569 39.2356L20.8806 37.0031L19.32 35.3087L15 33.8831L13.665 36.7544Z" fill="#34484C"/>
<path d="M30.9469 30.5031C30.9469 31.6844 30.3406 31.9962 28.8056 32.6425L15.7119 38.1719C15.1443 38.1719 14.5999 37.9464 14.1985 37.5451C13.797 37.1438 13.5714 36.5995 13.5713 36.0319V17.6312C13.5713 16.4487 14.2656 16.055 15.7119 15.4906L28.8056 9.96124C29.3734 9.96141 29.9178 10.187 30.3193 10.5884C30.7208 10.9898 30.9466 11.5341 30.9469 12.1019V30.5031Z" fill="#78111F"/>
<path d="M14.7606 37.9494C14.7606 37.9494 19.6712 39.3562 19.9569 39.235C20.2425 39.1137 19.7737 37.1081 19.7737 37.1081L17.9987 35.1944L16.3456 35.1175L16.055 35.5312L14.7612 37.95" fill="#34484C"/>
<path d="M28.4981 11.2375L13.9688 17.3406L14.6512 21.2531L16.8138 21.4669L24.0275 20.3056L28.515 17.9531L31.8181 13.4313C31.0944 12.1375 30.035 11.335 28.4944 11.2375" fill="#F4F5F5"/>
<path d="M17.8212 18.6931C17.8212 18.3525 17.8819 18.0775 17.9981 17.8431C16.5106 17.7056 15.1081 17.2756 14.0831 16.3519C13.7444 16.665 13.5756 17.0537 13.5756 17.6331V36.0331C13.5757 36.3143 13.6312 36.5927 13.7389 36.8525C13.8465 37.1122 14.0043 37.3483 14.2032 37.547C14.4021 37.7458 14.6382 37.9035 14.898 38.011C15.1578 38.1185 15.4363 38.1738 15.7175 38.1737L17.83 37.2812C17.8248 37.2197 17.8219 37.158 17.8212 37.0962V18.6931Z" fill="#34484C"/>
<path d="M35.5681 32.3212C35.5681 33.5025 34.9619 33.8125 33.4288 34.4612L19.9544 39.2375C19.3871 39.2378 18.8429 39.0128 18.4415 38.612C18.04 38.2112 17.8142 37.6673 17.8138 37.1V18.695C17.8138 17.5137 18.5081 17.1219 19.9544 16.5575L33.4294 11.78C33.9966 11.7802 34.5405 12.0055 34.9415 12.4066C35.3426 12.8077 35.568 13.3516 35.5681 13.9187V32.3212Z" fill="#BE202E"/>
<path d="M29.9925 17.3919C30.0064 17.4275 30.0132 17.4654 30.0124 17.5036C30.0116 17.5418 30.0033 17.5795 29.9879 17.6144C29.9725 17.6494 29.9503 17.681 29.9227 17.7073C29.8951 17.7337 29.8625 17.7544 29.8269 17.7681L22.6606 20.5294C22.6254 20.5433 22.5877 20.5502 22.5499 20.5495C22.512 20.5489 22.4746 20.5407 22.4398 20.5256C22.4051 20.5104 22.3737 20.4885 22.3475 20.4612C22.3212 20.4338 22.3006 20.4016 22.2869 20.3663C22.273 20.3309 22.2662 20.2931 22.267 20.2552C22.2678 20.2172 22.2761 20.1797 22.2914 20.145C22.3068 20.1102 22.3289 20.0789 22.3564 20.0527C22.3839 20.0265 22.4164 20.0061 22.4519 19.9925L29.6188 17.2281C29.654 17.2142 29.6917 17.2074 29.7296 17.2081C29.7676 17.2088 29.805 17.217 29.8397 17.2322C29.8745 17.2474 29.9058 17.2694 29.9321 17.2968C29.9583 17.3242 29.9788 17.3565 29.9925 17.3919ZM29.9925 18.7125C30.0063 18.7479 30.0129 18.7856 30.0121 18.8235C30.0112 18.8615 30.0028 18.8989 29.9874 18.9336C29.972 18.9683 29.9499 18.9995 29.9224 19.0256C29.8948 19.0517 29.8624 19.0721 29.8269 19.0856L22.66 21.8488C22.5885 21.8763 22.509 21.8743 22.4389 21.8432C22.3688 21.8122 22.3139 21.7546 22.2863 21.6831C22.2585 21.6113 22.2602 21.5315 22.2911 21.461C22.322 21.3904 22.3796 21.3351 22.4513 21.3069L29.6181 18.5469C29.6536 18.5328 29.6915 18.5259 29.7297 18.5267C29.7678 18.5274 29.8054 18.5357 29.8403 18.5511C29.8752 18.5665 29.9067 18.5887 29.933 18.6164C29.9592 18.6442 29.979 18.6768 29.9925 18.7125ZM27.5581 21.0125C27.6156 21.1613 27.5806 21.315 27.4763 21.3531L22.5831 23.2413C22.48 23.28 22.3513 23.1913 22.2944 23.0419C22.2363 22.8938 22.2719 22.7388 22.3756 22.6994L27.2688 20.8138C27.3694 20.7744 27.4981 20.8625 27.5581 21.0125Z" fill="#78111F"/>
</svg>
